    <svg
      xmlns="http://www.w3.org/2000/svg"
      version="1.1" 
      viewBox="0 0 1500 1000" 
    >
      <g   transform="scale(8.105004625720571) translate(10, 10)">
        <defs id="SvgjsDefs1021" />
        <g
          id="SvgjsG1022"
          transform="matrix(7.825073922540404,0,0,7.825073922540404,-12.676620724649817,-39.125369612702016)"
          fill="#ff5a31"
           
        >
          <path d="M11.12 11.12 q0.3 0 0.51 0.21 t0.21 0.51 l0 1.48 q0 0.28 -0.21 0.49 t-0.51 0.21 l-6.58 0 l0 5.12 q0 0.28 -0.2 0.49 t-0.5 0.21 l-1.52 0 q-0.28 0 -0.49 -0.21 t-0.21 -0.49 l0 -7.3 q0 -0.3 0.21 -0.51 t0.49 -0.21 l8.8 0 z M12.02 5 q0.28 0 0.49 0.21 t0.21 0.49 l0 1.46 q0 0.3 -0.21 0.51 t-0.49 0.21 l-9.7 0 q-0.28 0 -0.49 -0.21 t-0.21 -0.51 l0 -1.46 q0 -0.28 0.21 -0.49 t0.49 -0.21 l9.7 0 z" />
        </g>
      </g>
    </svg>